<svg width="25" height="25" viewBox="0 0 25 25" fill="none" xmlns="http://www.w3.org/2000/svg">
<path d="M21.8385 7.29167C21.7576 5.34135 21.4965 4.14557 20.6546 3.30372C19.4343 2.08333 17.47 2.08333 13.5417 2.08333H11.4583C7.52996 2.08333 5.56578 2.08333 4.34539 3.30372C3.125 4.52411 3.125 6.48829 3.125 10.4167V14.5833C3.125 18.5117 3.125 20.4759 4.34539 21.6962C5.56578 22.9167 7.52996 22.9167 11.4583 22.9167H13.5417C17.47 22.9167 19.4343 22.9167 20.6546 21.6962C21.875 20.4759 21.875 18.5117 21.875 14.5833V11.4583" stroke="#ECE7F4" stroke-width="2" stroke-linecap="round"/>
<path d="M6.25 12.5C6.25 11.0269 6.25 10.2903 6.70765 9.83265C7.16529 9.375 7.90186 9.375 9.375 9.375H15.625C17.0981 9.375 17.8347 9.375 18.2924 9.83265C18.75 10.2903 18.75 11.0269 18.75 12.5V16.6667C18.75 18.1398 18.75 18.8764 18.2924 19.3341C17.8347 19.7917 17.0981 19.7917 15.625 19.7917H9.375C7.90186 19.7917 7.16529 19.7917 6.70765 19.3341C6.25 18.8764 6.25 18.1398 6.25 16.6667V12.5Z" stroke="#ECE7F4" stroke-width="2"/>
<path d="M7.29199 6.25H12.5003" stroke="#ECE7F4" stroke-width="2" stroke-linecap="round"/>
</svg>
