<svg width="25.000000" height="25.000000" viewBox="0 0 25 25" fill="none" xmlns="http://www.w3.org/2000/svg" xmlns:xlink="http://www.w3.org/1999/xlink">
	<desc>
			Created with Pixso.
	</desc>
	<defs>
		<clipPath id="clip112_6">
			<rect id="group-svgrepo-com" width="25.000000" height="25.000000" fill="white" fill-opacity="0"/>
		</clipPath>
	</defs>
	<g clip-path="url(#clip112_6)">
		<path id="形状" d="M13.54 13.54C15.84 13.54 17.7 15.4 17.7 17.7L17.7 19.79C17.7 20.36 17.24 20.83 16.66 20.83C16.09 20.83 15.62 20.36 15.62 19.79L15.62 17.7C15.62 16.55 14.69 15.62 13.54 15.62L6.25 15.62C5.09 15.62 4.16 16.55 4.16 17.7L4.16 19.79C4.16 20.36 3.7 20.83 3.12 20.83C2.54 20.83 2.08 20.36 2.08 19.79L2.08 17.7C2.08 15.4 3.94 13.54 6.25 13.54L13.54 13.54ZM19.79 13.54C21.51 13.54 22.91 14.94 22.91 16.66L22.91 18.75C22.91 19.32 22.45 19.79 21.87 19.79C21.29 19.79 20.83 19.32 20.83 18.75L20.83 16.66C20.83 16.09 20.36 15.62 19.79 15.62L18.31 15.62C17.95 14.79 17.38 14.07 16.66 13.54L19.79 13.54ZM9.89 3.12C12.48 3.12 14.58 5.22 14.58 7.81C14.58 10.4 12.48 12.5 9.89 12.5C7.3 12.5 5.2 10.4 5.2 7.81C5.2 5.22 7.3 3.12 9.89 3.12ZM18.75 6.25C20.47 6.25 21.87 7.64 21.87 9.37C21.87 11.1 20.47 12.5 18.75 12.5C17.02 12.5 15.62 11.1 15.62 9.37C15.62 7.64 17.02 6.25 18.75 6.25ZM9.89 5.2C8.45 5.2 7.29 6.37 7.29 7.81C7.29 9.25 8.45 10.41 9.89 10.41C11.33 10.41 12.5 9.25 12.5 7.81C12.5 6.37 11.33 5.2 9.89 5.2ZM18.75 8.33C18.17 8.33 17.7 8.79 17.7 9.37C17.7 9.95 18.17 10.41 18.75 10.41C19.32 10.41 19.79 9.95 19.79 9.37C19.79 8.79 19.32 8.33 18.75 8.33Z" fill="#ECE7F4" fill-opacity="1.000000" fill-rule="evenodd"/>
	</g>
</svg>
