<svg width="25.000000" height="25.000000" viewBox="0 0 25 25" fill="none" xmlns="http://www.w3.org/2000/svg" xmlns:xlink="http://www.w3.org/1999/xlink">
	<desc>
			Created with Pixso.
	</desc>
	<defs>
		<clipPath id="clip112_4">
			<rect id="data-center-asset-overview-svgrepo-com" width="25.000000" height="25.000000" fill="white" fill-opacity="0"/>
		</clipPath>
	</defs>
	<g clip-path="url(#clip112_4)">
		<path id="path" d="M8.6 1.93C9.46 1.93 10.16 2.63 10.16 3.49L10.16 8.15C10.16 8.25 10.15 8.35 10.13 8.45C10.11 8.56 10.08 8.65 10.04 8.75C10 8.84 9.95 8.93 9.9 9.02C9.84 9.1 9.78 9.18 9.7 9.25C9.63 9.33 9.55 9.39 9.47 9.45C9.38 9.5 9.29 9.55 9.2 9.59C9.1 9.63 9 9.66 8.9 9.68C8.8 9.7 8.7 9.71 8.6 9.71L4.41 9.71C4.31 9.71 4.21 9.7 4.11 9.68C4.01 9.66 3.91 9.63 3.81 9.59C3.72 9.55 3.63 9.5 3.54 9.45C3.46 9.39 3.38 9.33 3.31 9.25C3.23 9.18 3.17 9.1 3.11 9.02C3.06 8.93 3.01 8.84 2.97 8.75C2.93 8.65 2.9 8.56 2.88 8.45C2.86 8.35 2.85 8.25 2.85 8.15L2.85 3.49C2.85 2.63 3.55 1.93 4.41 1.93L8.6 1.93ZM8.6 14.39C9.46 14.39 10.16 15.08 10.16 15.95L10.16 20.61C10.16 20.71 10.15 20.81 10.13 20.91C10.11 21.01 10.08 21.11 10.04 21.21C10 21.3 9.95 21.39 9.9 21.48C9.84 21.56 9.78 21.64 9.7 21.71C9.63 21.78 9.55 21.85 9.47 21.9C9.38 21.96 9.29 22.01 9.2 22.05C9.1 22.09 9 22.12 8.9 22.14C8.8 22.16 8.7 22.17 8.6 22.17L4.41 22.17C4.31 22.17 4.21 22.16 4.11 22.14C4.01 22.12 3.91 22.09 3.81 22.05C3.72 22.01 3.63 21.96 3.54 21.9C3.46 21.85 3.38 21.78 3.31 21.71C3.23 21.64 3.17 21.56 3.11 21.47C3.06 21.39 3.01 21.3 2.97 21.21C2.93 21.11 2.9 21.01 2.88 20.91C2.86 20.81 2.85 20.71 2.85 20.61L2.85 15.95C2.85 15.08 3.55 14.39 4.41 14.39L8.6 14.39ZM20.58 1.93C21.44 1.93 22.14 2.63 22.14 3.49L22.14 8.15C22.14 8.25 22.13 8.35 22.11 8.45C22.09 8.56 22.06 8.65 22.02 8.75C21.98 8.84 21.93 8.93 21.88 9.02C21.82 9.1 21.75 9.18 21.68 9.25C21.61 9.33 21.53 9.39 21.45 9.45C21.36 9.5 21.27 9.55 21.17 9.59C21.08 9.63 20.98 9.66 20.88 9.68C20.78 9.7 20.68 9.71 20.58 9.71L16.39 9.71C16.29 9.71 16.19 9.7 16.09 9.68C15.99 9.66 15.89 9.63 15.79 9.59C15.7 9.55 15.61 9.51 15.52 9.45C15.44 9.39 15.36 9.33 15.29 9.25C15.21 9.18 15.15 9.1 15.09 9.02C15.03 8.93 14.99 8.84 14.95 8.75C14.91 8.65 14.88 8.56 14.86 8.46C14.84 8.35 14.83 8.25 14.83 8.15L14.83 3.49C14.83 2.63 15.53 1.93 16.39 1.93L20.58 1.93ZM4.22 11.2L8.79 11.2C10.36 11.2 11.64 9.93 11.64 8.36L11.64 3.28C11.64 3.18 11.63 3.09 11.63 3C11.62 2.9 11.6 2.81 11.58 2.72C11.57 2.63 11.54 2.54 11.52 2.45C11.49 2.36 11.46 2.27 11.42 2.19C11.39 2.1 11.35 2.02 11.3 1.94C11.26 1.85 11.21 1.77 11.16 1.7C11.11 1.62 11.05 1.55 10.99 1.47C10.93 1.4 10.87 1.33 10.8 1.27C10.74 1.2 10.67 1.14 10.6 1.08C10.52 1.02 10.45 0.97 10.37 0.91C10.29 0.86 10.21 0.82 10.13 0.77C10.05 0.73 9.96 0.69 9.88 0.65C9.79 0.62 9.7 0.59 9.62 0.56C9.53 0.53 9.44 0.51 9.34 0.49C9.25 0.48 9.16 0.46 9.07 0.45C8.98 0.45 8.88 0.44 8.79 0.44L4.22 0.44C2.65 0.44 1.37 1.71 1.37 3.28L1.37 8.36C1.37 8.46 1.37 8.55 1.38 8.64C1.39 8.74 1.41 8.83 1.43 8.92C1.44 9.01 1.47 9.1 1.49 9.19C1.52 9.28 1.55 9.37 1.59 9.45C1.62 9.54 1.66 9.62 1.71 9.7C1.75 9.79 1.8 9.87 1.85 9.94C1.9 10.02 1.96 10.09 2.02 10.17C2.08 10.24 2.14 10.31 2.21 10.37C2.27 10.44 2.34 10.5 2.41 10.56C2.49 10.62 2.56 10.67 2.64 10.72C2.72 10.78 2.8 10.82 2.88 10.87C2.96 10.91 3.05 10.95 3.13 10.99C3.22 11.02 3.31 11.05 3.39 11.08C3.48 11.11 3.57 11.13 3.67 11.15C3.76 11.16 3.85 11.18 3.94 11.19C4.03 11.19 4.13 11.2 4.22 11.2ZM4.22 23.66L8.79 23.66C10.36 23.66 11.64 22.39 11.64 20.82L11.64 15.73C11.64 15.64 11.63 15.55 11.63 15.45C11.62 15.36 11.6 15.27 11.58 15.18C11.57 15.09 11.54 15 11.52 14.91C11.49 14.82 11.46 14.73 11.42 14.64C11.39 14.56 11.35 14.48 11.3 14.39C11.26 14.31 11.21 14.23 11.16 14.15C11.11 14.08 11.05 14 10.99 13.93C10.93 13.86 10.87 13.79 10.8 13.72C10.74 13.66 10.67 13.6 10.6 13.54C10.52 13.48 10.45 13.42 10.37 13.37C10.29 13.32 10.21 13.27 10.13 13.23C10.05 13.19 9.96 13.15 9.88 13.11C9.79 13.08 9.7 13.04 9.62 13.02C9.53 12.99 9.44 12.97 9.34 12.95C9.25 12.93 9.16 12.92 9.07 12.91C8.98 12.9 8.88 12.9 8.79 12.9L4.22 12.9C2.65 12.9 1.37 14.17 1.37 15.73L1.37 20.82C1.37 20.91 1.38 21.01 1.39 21.1C1.4 21.19 1.41 21.28 1.43 21.38C1.45 21.47 1.47 21.56 1.5 21.65C1.52 21.74 1.55 21.82 1.59 21.91C1.63 22 1.67 22.08 1.71 22.16C1.75 22.24 1.8 22.32 1.85 22.4C1.91 22.48 1.96 22.55 2.02 22.62C2.08 22.7 2.14 22.76 2.21 22.83C2.28 22.9 2.34 22.96 2.42 23.02C2.49 23.08 2.56 23.13 2.64 23.18C2.72 23.23 2.8 23.28 2.88 23.32C2.96 23.37 3.05 23.41 3.13 23.44C3.22 23.48 3.31 23.51 3.4 23.54C3.49 23.56 3.58 23.59 3.67 23.6C3.76 23.62 3.85 23.63 3.94 23.64C4.04 23.65 4.13 23.66 4.22 23.66ZM16.2 11.2L20.77 11.2C22.34 11.2 23.62 9.93 23.62 8.36L23.62 3.28C23.62 3.18 23.61 3.09 23.6 3C23.59 2.9 23.58 2.81 23.56 2.72C23.54 2.63 23.52 2.54 23.49 2.45C23.47 2.36 23.44 2.27 23.4 2.19C23.36 2.1 23.32 2.02 23.28 1.94C23.24 1.85 23.19 1.77 23.14 1.7C23.08 1.62 23.03 1.55 22.97 1.47C22.91 1.4 22.85 1.33 22.78 1.27C22.71 1.2 22.65 1.14 22.57 1.08C22.5 1.02 22.43 0.97 22.35 0.91C22.27 0.86 22.19 0.82 22.11 0.77C22.03 0.73 21.94 0.69 21.86 0.65C21.77 0.62 21.68 0.59 21.59 0.56C21.5 0.53 21.41 0.51 21.32 0.49C21.23 0.48 21.14 0.46 21.05 0.45C20.95 0.45 20.86 0.44 20.77 0.44L16.2 0.44C14.63 0.44 13.35 1.71 13.35 3.28L13.35 8.36C13.35 8.46 13.36 8.55 13.37 8.64C13.38 8.74 13.39 8.83 13.41 8.92C13.43 9.01 13.45 9.1 13.48 9.19C13.5 9.28 13.54 9.37 13.57 9.45C13.61 9.54 13.65 9.62 13.69 9.7C13.73 9.79 13.78 9.87 13.83 9.94C13.89 10.02 13.94 10.09 14 10.17C14.06 10.24 14.12 10.31 14.19 10.37C14.26 10.44 14.32 10.5 14.4 10.56C14.47 10.62 14.54 10.67 14.62 10.72C14.7 10.78 14.78 10.82 14.86 10.87C14.94 10.91 15.03 10.95 15.11 10.99C15.2 11.02 15.29 11.05 15.38 11.08C15.47 11.11 15.56 11.13 15.65 11.15C15.74 11.16 15.83 11.18 15.92 11.19C16.02 11.19 16.11 11.2 16.2 11.2ZM20.57 22.16L16.2 22.16C15.26 22.16 14.85 21.76 14.85 20.82L14.85 15.73C14.85 14.79 15.26 14.38 16.2 14.38L20.77 14.38C21.71 14.38 22.14 14.79 22.14 15.73L22.14 20.82C22.14 21.14 22.47 21.5 22.91 21.5C23.35 21.5 23.62 21.14 23.62 20.82L23.62 15.73C23.62 15.64 23.61 15.54 23.6 15.45C23.59 15.36 23.58 15.27 23.56 15.18C23.54 15.09 23.52 15 23.49 14.91C23.47 14.82 23.43 14.73 23.4 14.64C23.36 14.56 23.32 14.47 23.28 14.39C23.23 14.31 23.19 14.23 23.14 14.15C23.08 14.08 23.03 14 22.97 13.93C22.91 13.86 22.85 13.79 22.78 13.72C22.71 13.66 22.65 13.6 22.57 13.54C22.5 13.48 22.43 13.42 22.35 13.37C22.27 13.32 22.19 13.27 22.11 13.23C22.03 13.19 21.94 13.15 21.86 13.11C21.77 13.08 21.68 13.04 21.59 13.02C21.5 12.99 21.41 12.97 21.32 12.95C21.23 12.93 21.14 12.92 21.05 12.91C20.95 12.9 20.86 12.9 20.77 12.9L16.2 12.9C14.63 12.9 13.35 14.17 13.35 15.73L13.35 20.82C13.35 20.91 13.36 21.01 13.36 21.1C13.37 21.19 13.39 21.28 13.41 21.38C13.42 21.47 13.45 21.56 13.47 21.65C13.5 21.74 13.53 21.82 13.57 21.91C13.6 21.99 13.64 22.08 13.69 22.16C13.73 22.24 13.78 22.32 13.83 22.4C13.88 22.48 13.94 22.55 14 22.62C14.06 22.69 14.12 22.76 14.19 22.83C14.25 22.89 14.32 22.96 14.39 23.02C14.47 23.07 14.54 23.13 14.62 23.18C14.7 23.23 14.78 23.28 14.86 23.32C14.94 23.37 15.02 23.41 15.11 23.44C15.2 23.48 15.28 23.51 15.37 23.54C15.46 23.56 15.55 23.58 15.64 23.6C15.74 23.62 15.83 23.63 15.92 23.64C16.01 23.65 16.11 23.66 16.2 23.66L20.75 23.66C21.08 23.66 21.5 23.39 21.5 22.9C21.5 22.86 21.5 22.81 21.49 22.76C21.48 22.71 21.47 22.67 21.45 22.62C21.43 22.58 21.41 22.53 21.38 22.49C21.35 22.45 21.32 22.42 21.29 22.38C21.25 22.35 21.22 22.32 21.18 22.29C21.14 22.26 21.09 22.24 21.05 22.22C21.01 22.2 20.96 22.18 20.91 22.17C20.86 22.16 20.82 22.16 20.77 22.16L20.57 22.16Z" fill="#ECE7F4" fill-opacity="1.000000" fill-rule="nonzero"/>
	</g>
</svg>
