<svg width="24" height="24" viewBox="0 0 24 24" fill="none" xmlns="http://www.w3.org/2000/svg">
    <g clip-path="url(#clip0_50_6)">
        <path
            d="M21.1667 20.3333H6.16667C5.50363 20.3333 4.86774 20.0699 4.3989 19.6011C3.93006 19.1323 3.66667 18.4964 3.66667 17.8333V2.83333C3.66667 2.61232 3.57887 2.40036 3.42259 2.24408C3.26631 2.0878 3.05435 2 2.83333 2C2.61232 2 2.40036 2.0878 2.24408 2.24408C2.0878 2.40036 2 2.61232 2 2.83333V17.8333C2.00132 18.938 2.44073 19.997 3.22185 20.7782C4.00296 21.5593 5.062 21.9987 6.16667 22H21.1667C21.3877 22 21.5996 21.9122 21.7559 21.7559C21.9122 21.5996 22 21.3877 22 21.1667C22 20.9457 21.9122 20.7337 21.7559 20.5774C21.5996 20.4211 21.3877 20.3333 21.1667 20.3333Z"
            fill="black" />
        <path
            d="M6.99935 18.6667C7.22036 18.6667 7.43232 18.5789 7.5886 18.4226C7.74488 18.2663 7.83268 18.0544 7.83268 17.8333V12C7.83268 11.779 7.74488 11.567 7.5886 11.4108C7.43232 11.2545 7.22036 11.1667 6.99935 11.1667C6.77834 11.1667 6.56637 11.2545 6.41009 11.4108C6.25381 11.567 6.16602 11.779 6.16602 12V17.8333C6.16602 18.0544 6.25381 18.2663 6.41009 18.4226C6.56637 18.5789 6.77834 18.6667 6.99935 18.6667ZM10.3327 10.3333V17.8333C10.3327 18.0544 10.4205 18.2663 10.5768 18.4226C10.733 18.5789 10.945 18.6667 11.166 18.6667C11.387 18.6667 11.599 18.5789 11.7553 18.4226C11.9116 18.2663 11.9993 18.0544 11.9993 17.8333V10.3333C11.9993 10.1123 11.9116 9.90037 11.7553 9.74409C11.599 9.58781 11.387 9.50001 11.166 9.50001C10.945 9.50001 10.733 9.58781 10.5768 9.74409C10.4205 9.90037 10.3327 10.1123 10.3327 10.3333ZM14.4993 12.8333V17.8333C14.4993 18.0544 14.5871 18.2663 14.7434 18.4226C14.8997 18.5789 15.1117 18.6667 15.3327 18.6667C15.5537 18.6667 15.7657 18.5789 15.9219 18.4226C16.0782 18.2663 16.166 18.0544 16.166 17.8333V12.8333C16.166 12.6123 16.0782 12.4004 15.9219 12.2441C15.7657 12.0878 15.5537 12 15.3327 12C15.1117 12 14.8997 12.0878 14.7434 12.2441C14.5871 12.4004 14.4993 12.6123 14.4993 12.8333ZM18.666 9.50001V17.8333C18.666 18.0544 18.7538 18.2663 18.9101 18.4226C19.0664 18.5789 19.2783 18.6667 19.4993 18.6667C19.7204 18.6667 19.9323 18.5789 20.0886 18.4226C20.2449 18.2663 20.3327 18.0544 20.3327 17.8333V9.50001C20.3327 9.279 20.2449 9.06704 20.0886 8.91076C19.9323 8.75448 19.7204 8.66668 19.4993 8.66668C19.2783 8.66668 19.0664 8.75448 18.9101 8.91076C18.7538 9.06704 18.666 9.279 18.666 9.50001ZM6.99935 9.50001C7.22034 9.49997 7.43227 9.41214 7.58852 9.25585L10.5768 6.26751C10.7357 6.1162 10.9466 6.0318 11.166 6.0318C11.3854 6.0318 11.5963 6.1162 11.7552 6.26751L13.5652 8.07751C14.034 8.54619 14.6698 8.80948 15.3327 8.80948C15.9956 8.80948 16.6314 8.54619 17.1002 8.07751L21.7552 3.42251C21.907 3.26535 21.991 3.05484 21.9891 2.83635C21.9872 2.61785 21.8995 2.40884 21.745 2.25433C21.5905 2.09982 21.3815 2.01218 21.163 2.01029C20.9445 2.00839 20.734 2.09238 20.5768 2.24418L15.9219 6.89835C15.7656 7.05457 15.5537 7.14234 15.3327 7.14234C15.1117 7.14234 14.8998 7.05457 14.7435 6.89835L12.9335 5.08918C12.4647 4.6205 11.8289 4.35721 11.166 4.35721C10.5031 4.35721 9.86733 4.6205 9.39852 5.08918L6.41018 8.07751C6.29367 8.19406 6.21434 8.34253 6.1822 8.50415C6.15006 8.66578 6.16656 8.83331 6.22962 8.98556C6.29268 9.13781 6.39946 9.26794 6.53647 9.35952C6.67348 9.45109 6.83456 9.49998 6.99935 9.50001Z"
            fill="black" />
    </g>
    <defs>
        <clipPath id="clip0_50_6">
            <rect width="20" height="20" fill="white" transform="translate(2 2)" />
        </clipPath>
    </defs>
</svg>
    