<svg width="25" height="25" viewBox="0 0 25 25" fill="none" xmlns="http://www.w3.org/2000/svg"><path d="M19.7922 14.6252H18.932C18.916 14.5973 18.8998 14.5695 18.8834 14.5419H19.7922C20.9658 14.5419 21.9172 15.4933 21.9172 16.6669V18.7502C21.9172 18.7732 21.8986 18.7919 21.8755 18.7919C21.8526 18.7919 21.8339 18.7732 21.8339 18.7502V16.6669C21.8339 15.5394 20.9199 14.6252 19.7922 14.6252ZM13.5423 14.5417C15.2912 14.5417 16.709 15.9595 16.709 17.7083V19.7917C16.709 19.8147 16.6903 19.8333 16.6673 19.8333C16.6443 19.8333 16.6257 19.8147 16.6257 19.7917V17.7083C16.6257 16.0054 15.2452 14.625 13.5423 14.625H6.25065C4.54778 14.625 3.16732 16.0054 3.16732 17.7083V19.7917C3.16732 19.8147 3.14867 19.8333 3.12565 19.8333C3.10263 19.8333 3.08398 19.8147 3.08398 19.7917V17.7083C3.08398 15.9595 4.50175 14.5417 6.25065 14.5417H13.5423ZM9.89646 4.125C11.9331 4.125 13.584 5.77595 13.584 7.8125C13.584 9.84905 11.9331 11.5 9.89646 11.5C7.85991 11.5 6.20896 9.84905 6.20896 7.8125C6.20896 5.77595 7.85991 4.125 9.89646 4.125ZM18.7507 7.25C19.9243 7.25 20.8757 8.20139 20.8757 9.375C20.8757 10.5487 19.9243 11.5 18.7507 11.5C17.577 11.5 16.6257 10.5487 16.6257 9.375C16.6257 8.20139 17.577 7.25 18.7507 7.25ZM9.89646 4.20833C7.90593 4.20833 6.2923 5.82198 6.2923 7.8125C6.2923 9.80302 7.90593 11.4167 9.89646 11.4167C11.887 11.4167 13.5007 9.80303 13.5007 7.8125C13.5007 5.82197 11.887 4.20833 9.89646 4.20833ZM18.7507 7.33333C17.623 7.33333 16.709 8.24744 16.709 9.375C16.709 10.5026 17.623 11.4167 18.7507 11.4167C19.8783 11.4167 20.7923 10.5026 20.7923 9.375C20.7923 8.24744 19.8783 7.33333 18.7507 7.33333Z" stroke="#ECE7F4CC" stroke-width="2"/></svg>