<svg width="25" height="25" viewBox="0 0 25 25" fill="none" xmlns="http://www.w3.org/2000/svg" stroke-width="2px"><path d="M12.5 12.4997C12.5 11.9244 12.9664 11.458 13.5417 11.458H19.7917C20.367 11.458 20.8333 11.9244 20.8333 12.4997V19.7913C20.8333 20.3667 20.367 20.833 19.7917 20.833H13.5417C12.9664 20.833 12.5 20.3667 12.5 19.7913V12.4997Z" stroke="#ECE7F4" stroke-linecap="round"/><path d="M4.16602 5.20866C4.16602 4.63337 4.63239 4.16699 5.20768 4.16699H8.33268C8.90797 4.16699 9.37435 4.63337 9.37435 5.20866V19.792C9.37435 20.3673 8.90797 20.8337 8.33268 20.8337H5.20768C4.63239 20.8337 4.16602 20.3673 4.16602 19.792V5.20866Z" stroke="#ECE7F4" stroke-linecap="round"/><path d="M12.5 5.20866C12.5 4.63337 12.9664 4.16699 13.5417 4.16699H19.7917C20.367 4.16699 20.8333 4.63337 20.8333 5.20866V7.29199C20.8333 7.86728 20.367 8.33366 19.7917 8.33366H13.5417C12.9664 8.33366 12.5 7.86728 12.5 7.29199V5.20866Z" stroke="#ECE7F4" stroke-linecap="round"/></svg>