<svg width="36.000000" height="36.000000" viewBox="0 0 36 36" fill="none" xmlns="http://www.w3.org/2000/svg" xmlns:xlink="http://www.w3.org/1999/xlink">
	<desc>
			Created with Pixso.
	</desc>
	<defs/>
	<rect id="Rectangle 8" x="1.000000" y="1.000000" rx="5.000000" width="34.000000" height="34.000000" stroke="#ECE7F4" stroke-opacity="1.000000" stroke-width="2.000000"/>
	<path id="Polygon 1" d="M18 19.03C18 19.03 13.04 18.86 10.43 20.45C8.95 21.35 8.04 22.94 7.53 24.14C7.11 25.14 7.32 26.26 8.08 27.02C9.63 28.59 12.86 31.03 18 31.03C22.97 31.03 26.16 28.74 27.76 27.17C28.62 26.33 28.8 25.06 28.25 24C27.64 22.82 26.64 21.31 25.21 20.45C22.61 18.86 18 19.03 18 19.03Z" fill="#ECE7F4" fill-opacity="1.000000" fill-rule="evenodd"/>
	<circle id="Oval 7" cx="18.000000" cy="11.000000" r="6.000000" fill="#ECE7F4" fill-opacity="1.000000"/>
</svg>
