<svg width="137.000000" height="30.000000" viewBox="0 0 137 30" fill="none" xmlns="http://www.w3.org/2000/svg" xmlns:xlink="http://www.w3.org/1999/xlink">
	<mask id="mask_74_30" fill="white">
		<path id="Intersect" d="M8.19385 29.0391C8.96875 29.2279 9.81152 29.3223 10.7231 29.3223C12.2661 29.3223 13.4185 28.9088 14.1802 28.082C14.9419 27.2552 15.4141 26.2689 15.5962 25.123L15.9185 25.123L16.2017 27.4766C16.2461 28.0457 16.4146 28.4272 16.707 28.6212C16.7593 28.6558 16.8154 28.6843 16.8755 28.707C17.2793 28.8502 18.2329 28.9219 19.7368 28.9219C21.2471 28.9219 22.7021 28.8145 24.1021 28.5996C25.502 28.3848 26.2017 28.1049 26.2017 27.7598L26.2017 16.6758C26.2017 16.3047 26.0127 15.8783 25.6353 15.3965C25.4268 15.1035 25.0361 14.8789 24.4634 14.7227C23.8906 14.5599 22.9756 14.4785 21.7192 14.4785C20.4692 14.4785 19.1641 14.7584 17.8032 15.3184C16.4966 15.856 15.8174 16.4446 15.7656 17.0842C15.7632 17.1107 15.7622 17.1373 15.7622 17.1641L15.7622 20.7578C14.9614 20.6537 14.2939 20.1295 13.7603 19.1855C13.2266 18.235 12.9595 16.7865 12.9595 14.8398C12.9595 11.9778 13.5869 10.1748 14.8423 9.43091C15.2832 9.16968 15.8013 9.03906 16.397 9.03906C17.1978 9.03906 18.3989 9.24744 20.0005 9.66406C21.6021 10.0742 22.5068 10.2793 22.7153 10.2793C23.6006 10.2793 24.2681 9.56641 24.7173 8.14062C25.1729 6.71484 25.4009 5.38672 25.4009 4.15625C25.4009 3.27942 25.1895 2.56348 24.7671 2.0083C24.4458 1.58655 24.0029 1.25757 23.438 1.02148C22.1294 0.474609 19.877 0.201172 16.6802 0.201172C15.2935 0.201172 13.9849 0.302124 12.7544 0.503906C11.5303 0.699219 10.2119 1.1322 8.79932 1.80273C7.42578 2.44824 6.24023 3.27844 5.24219 4.29309C5.21338 4.32227 5.18506 4.35144 5.15674 4.38086C4.14746 5.43555 3.30762 6.91016 2.63721 8.80469C1.97314 10.6927 1.64111 12.877 1.64111 15.3574C1.64111 19.8627 2.30859 23.2383 3.64307 25.4844C4.229 26.4674 4.94189 27.2584 5.78174 27.8574C6.62158 28.4564 7.42578 28.8502 8.19385 29.0391ZM36.814 28.7461C38.4023 29.1562 40.3037 29.3613 42.5171 29.3613C46.8662 29.3613 50.3066 28.1471 52.8394 25.7188C55.3721 23.2904 56.6382 19.5176 56.6382 14.4004C56.6382 8.6908 55.2383 4.82361 52.439 2.79883C51.0522 1.8158 49.5776 1.13867 48.0151 0.767578C46.459 0.390015 44.6265 0.201172 42.5171 0.201172C38.4414 0.201172 35.1211 1.26892 32.5562 3.4043C31.2539 4.49805 30.2354 5.97913 29.4995 7.84766C28.7637 9.70959 28.396 11.8939 28.396 14.4004C28.396 20.3705 29.7437 24.4102 32.439 26.5195C33.4434 27.3229 34.5171 27.9419 35.6616 28.3767C36.0381 28.5198 36.4224 28.6429 36.814 28.7461ZM87.8354 28.7852C88.291 28.9283 89.186 29 90.521 29L105.199 29C105.602 29 105.921 28.3619 106.156 27.0859C106.396 25.8033 106.517 24.2767 106.517 22.5059C106.517 20.7285 106.237 19.8398 105.677 19.8398C104.023 19.8398 101.572 19.9473 98.3237 20.1621L98.3237 2.4375C98.3237 2.17053 98.229 1.90369 98.0405 1.63672C97.5063 0.920532 96.3867 0.5625 94.6812 0.5625C92.7603 0.5625 91.0254 0.848999 89.4761 1.42188C87.9331 1.99475 87.1616 2.57422 87.1616 3.16016L87.1616 28.043C87.1616 28.3881 87.3862 28.6354 87.8354 28.7852ZM67.4561 28.5605C68.2178 28.2676 68.6245 27.7338 68.6768 26.959L68.8818 24.7227L72.7197 24.7227L73.0029 27.3203C73.1069 28.4401 75.519 29 80.2393 29C82.4526 29 83.9336 28.707 84.6826 28.1211C85.0015 27.8541 85.1611 27.5873 85.1611 27.3203C85.1611 27.0533 82.6416 18.5475 77.6025 1.80273C77.3613 1.00195 76.0854 0.601562 73.7744 0.601562C71.4697 0.601562 69.3115 0.715454 67.2998 0.943359C65.2881 1.16467 64.2139 1.45117 64.0771 1.80273C63.7319 2.94861 62.3711 7.28772 59.9951 14.8203C57.625 22.3529 56.4404 26.4381 56.4404 27.0762C56.4404 27.6361 57.0977 28.0983 58.4131 28.4629C59.7344 28.8209 61.3818 29 63.3545 29C65.3335 29 66.7007 28.8535 67.4561 28.5605ZM112.242 29L121.675 29C126.747 29 130.295 27.9291 132.32 25.7871C134.345 23.6387 135.357 19.9115 135.357 14.6055C135.357 9.29297 134.384 5.63086 132.437 3.61914C130.491 1.60742 126.958 0.601562 121.841 0.601562L112.837 0.601562C111.399 0.601562 110.386 0.754517 109.8 1.06055C109.214 1.36658 108.921 1.8678 108.921 2.56445L108.921 27.7988C108.921 28.2285 109.146 28.5377 109.595 28.7266C110.051 28.9088 110.933 29 112.242 29ZM42.5171 23.082C41.957 23.082 41.5176 22.89 41.1987 22.5059C40.8799 22.1152 40.6128 21.2885 40.3979 20.0254C40.1831 18.7559 40.0757 16.9883 40.0757 14.7227C40.0757 12.457 40.1831 10.7123 40.3979 9.48828C40.6128 8.25781 40.8799 7.45703 41.1987 7.08594C41.5176 6.70837 41.957 6.51953 42.5171 6.51953C43.0771 6.51953 43.5166 6.70837 43.8354 7.08594C44.1611 7.45703 44.4277 8.25781 44.6362 9.48828C44.8511 10.7123 44.9585 12.457 44.9585 14.7227C44.9585 16.9883 44.8511 18.7559 44.6362 20.0254C44.4277 21.2885 44.1611 22.1152 43.8354 22.5059C43.5166 22.89 43.0771 23.082 42.5171 23.082ZM120.083 6.72461C120.292 6.61389 120.718 6.55859 121.363 6.55859C122.294 6.55859 122.971 7.09241 123.394 8.16016C123.824 9.22791 124.039 11.334 124.039 14.4785C124.039 17.623 123.831 19.8365 123.414 21.1191C123.075 22.1785 122.603 22.8004 121.998 22.9847C121.87 23.0236 121.737 23.043 121.597 23.043L120.083 22.877L120.083 6.72461ZM71.2842 9.91797L71.8799 17.1152L69.7217 17.1152L70.3955 9.91797L71.2842 9.91797Z" clip-rule="evenodd" fill="" fill-opacity="1.000000" fill-rule="evenodd"/>
	</mask>
	<path id="Intersect" d="M8.19385 29.0391C8.96875 29.2279 9.81152 29.3223 10.7231 29.3223C12.2661 29.3223 13.4185 28.9088 14.1802 28.082C14.9419 27.2552 15.4141 26.2689 15.5962 25.123L15.9185 25.123L16.2017 27.4766C16.2461 28.0457 16.4146 28.4272 16.707 28.6212C16.7593 28.6558 16.8154 28.6843 16.8755 28.707C17.2793 28.8502 18.2329 28.9219 19.7368 28.9219C21.2471 28.9219 22.7021 28.8145 24.1021 28.5996C25.502 28.3848 26.2017 28.1049 26.2017 27.7598L26.2017 16.6758C26.2017 16.3047 26.0127 15.8783 25.6353 15.3965C25.4268 15.1035 25.0361 14.8789 24.4634 14.7227C23.8906 14.5599 22.9756 14.4785 21.7192 14.4785C20.4692 14.4785 19.1641 14.7584 17.8032 15.3184C16.4966 15.856 15.8174 16.4446 15.7656 17.0842C15.7632 17.1107 15.7622 17.1373 15.7622 17.1641L15.7622 20.7578C14.9614 20.6537 14.2939 20.1295 13.7603 19.1855C13.2266 18.235 12.9595 16.7865 12.9595 14.8398C12.9595 11.9778 13.5869 10.1748 14.8423 9.43091C15.2832 9.16968 15.8013 9.03906 16.397 9.03906C17.1978 9.03906 18.3989 9.24744 20.0005 9.66406C21.6021 10.0742 22.5068 10.2793 22.7153 10.2793C23.6006 10.2793 24.2681 9.56641 24.7173 8.14062C25.1729 6.71484 25.4009 5.38672 25.4009 4.15625C25.4009 3.27942 25.1895 2.56348 24.7671 2.0083C24.4458 1.58655 24.0029 1.25757 23.438 1.02148C22.1294 0.474609 19.877 0.201172 16.6802 0.201172C15.2935 0.201172 13.9849 0.302124 12.7544 0.503906C11.5303 0.699219 10.2119 1.1322 8.79932 1.80273C7.42578 2.44824 6.24023 3.27844 5.24219 4.29309C5.21338 4.32227 5.18506 4.35144 5.15674 4.38086C4.14746 5.43555 3.30762 6.91016 2.63721 8.80469C1.97314 10.6927 1.64111 12.877 1.64111 15.3574C1.64111 19.8627 2.30859 23.2383 3.64307 25.4844C4.229 26.4674 4.94189 27.2584 5.78174 27.8574C6.62158 28.4564 7.42578 28.8502 8.19385 29.0391ZM36.814 28.7461C38.4023 29.1562 40.3037 29.3613 42.5171 29.3613C46.8662 29.3613 50.3066 28.1471 52.8394 25.7188C55.3721 23.2904 56.6382 19.5176 56.6382 14.4004C56.6382 8.6908 55.2383 4.82361 52.439 2.79883C51.0522 1.8158 49.5776 1.13867 48.0151 0.767578C46.459 0.390015 44.6265 0.201172 42.5171 0.201172C38.4414 0.201172 35.1211 1.26892 32.5562 3.4043C31.2539 4.49805 30.2354 5.97913 29.4995 7.84766C28.7637 9.70959 28.396 11.8939 28.396 14.4004C28.396 20.3705 29.7437 24.4102 32.439 26.5195C33.4434 27.3229 34.5171 27.9419 35.6616 28.3767C36.0381 28.5198 36.4224 28.6429 36.814 28.7461ZM87.8354 28.7852C88.291 28.9283 89.186 29 90.521 29L105.199 29C105.602 29 105.921 28.3619 106.156 27.0859C106.396 25.8033 106.517 24.2767 106.517 22.5059C106.517 20.7285 106.237 19.8398 105.677 19.8398C104.023 19.8398 101.572 19.9473 98.3237 20.1621L98.3237 2.4375C98.3237 2.17053 98.229 1.90369 98.0405 1.63672C97.5063 0.920532 96.3867 0.5625 94.6812 0.5625C92.7603 0.5625 91.0254 0.848999 89.4761 1.42188C87.9331 1.99475 87.1616 2.57422 87.1616 3.16016L87.1616 28.043C87.1616 28.3881 87.3862 28.6354 87.8354 28.7852ZM67.4561 28.5605C68.2178 28.2676 68.6245 27.7338 68.6768 26.959L68.8818 24.7227L72.7197 24.7227L73.0029 27.3203C73.1069 28.4401 75.519 29 80.2393 29C82.4526 29 83.9336 28.707 84.6826 28.1211C85.0015 27.8541 85.1611 27.5873 85.1611 27.3203C85.1611 27.0533 82.6416 18.5475 77.6025 1.80273C77.3613 1.00195 76.0854 0.601562 73.7744 0.601562C71.4697 0.601562 69.3115 0.715454 67.2998 0.943359C65.2881 1.16467 64.2139 1.45117 64.0771 1.80273C63.7319 2.94861 62.3711 7.28772 59.9951 14.8203C57.625 22.3529 56.4404 26.4381 56.4404 27.0762C56.4404 27.6361 57.0977 28.0983 58.4131 28.4629C59.7344 28.8209 61.3818 29 63.3545 29C65.3335 29 66.7007 28.8535 67.4561 28.5605ZM112.242 29L121.675 29C126.747 29 130.295 27.9291 132.32 25.7871C134.345 23.6387 135.357 19.9115 135.357 14.6055C135.357 9.29297 134.384 5.63086 132.437 3.61914C130.491 1.60742 126.958 0.601562 121.841 0.601562L112.837 0.601562C111.399 0.601562 110.386 0.754517 109.8 1.06055C109.214 1.36658 108.921 1.8678 108.921 2.56445L108.921 27.7988C108.921 28.2285 109.146 28.5377 109.595 28.7266C110.051 28.9088 110.933 29 112.242 29ZM42.5171 23.082C41.957 23.082 41.5176 22.89 41.1987 22.5059C40.8799 22.1152 40.6128 21.2885 40.3979 20.0254C40.1831 18.7559 40.0757 16.9883 40.0757 14.7227C40.0757 12.457 40.1831 10.7123 40.3979 9.48828C40.6128 8.25781 40.8799 7.45703 41.1987 7.08594C41.5176 6.70837 41.957 6.51953 42.5171 6.51953C43.0771 6.51953 43.5166 6.70837 43.8354 7.08594C44.1611 7.45703 44.4277 8.25781 44.6362 9.48828C44.8511 10.7123 44.9585 12.457 44.9585 14.7227C44.9585 16.9883 44.8511 18.7559 44.6362 20.0254C44.4277 21.2885 44.1611 22.1152 43.8354 22.5059C43.5166 22.89 43.0771 23.082 42.5171 23.082ZM120.083 6.72461C120.292 6.61389 120.718 6.55859 121.363 6.55859C122.294 6.55859 122.971 7.09241 123.394 8.16016C123.824 9.22791 124.039 11.334 124.039 14.4785C124.039 17.623 123.831 19.8365 123.414 21.1191C123.075 22.1785 122.603 22.8004 121.998 22.9847C121.87 23.0236 121.737 23.043 121.597 23.043L120.083 22.877L120.083 6.72461ZM71.2842 9.91797L71.8799 17.1152L69.7217 17.1152L70.3955 9.91797L71.2842 9.91797Z" clip-rule="evenodd" fill="#7638E0" fill-opacity="1.000000" fill-rule="evenodd" mask="url(#mask_74_30)"/>
	<path id="Intersect" d="" fill="#023993" fill-opacity="0.000000" fill-rule="nonzero"/>
</svg>
